# xmcd
#
# Track frame offsets:
#	150
#	12220
#	22265
#	35900
#	49838
#	63141
#	75301
#	89350
#	102169
#	118853
#	131123
#	145043
#	158462
#	171497
#	184866
#	199101
#	211976
#	226091
#	239348
#	254858
#
# Disc length: 3569 seconds
#
# Revision: 1
# Processed by: cddbd v1.5.2PL0 Copyright (c) Steve Scherf et al.
# Submitted via: audiograbber 1.83.01
#
DISCID=180def14
DTITLE=Various Artist - Jukebox Favourites CD2
DYEAR=1900
DGENRE=Blues
TTITLE0=Little Walter - My Babe
TTITLE1=John Lee Hooker - Dimples
TTITLE2=Muddy Waters - Rollin' And Tumblin'
TTITLE3=Willie Dickson - Walkin' The Blues
TTITLE4=Elmore James - Dust My Broom
TTITLE5=Junior Wells - Two Headed Woman
TTITLE6=Leadbelly - Where Did You Sleep Last Night
TTITLE7=Big Joe Williams - Baby Please Don't Go
TTITLE8=Tommy Johnson - Canned Heat Blues
TTITLE9=Bukka White - Parchman Farm Blues
TTITLE10=Robert Night Hawk - Black Angel Blues
TTITLE11=Robert Lockwood Jnr - Take A Little Walk With Me
TTITLE12=Jimmy Witherspoon - When The Lights Go Out
TTITLE13=Mississippi John Hurt - Aint No Tellin'
TTITLE14=Howlin' Wolf - Smokestack Lightning
TTITLE15=Slim Harp - Got Love If You Want It
TTITLE16=Sleepy John Estes - Someday Baby Blues
TTITLE17=Memphis Slim - Diggin' My Potatoes
TTITLE18=Sonny Boy Williamson - Decoration Day
TTITLE19=Jazz Gilum - Boar Hog Blues
EXTD=
EXTT0=
EXTT1=
EXTT2=
EXTT3=
EXTT4=
EXTT5=
EXTT6=
EXTT7=
EXTT8=
EXTT9=
EXTT10=
EXTT11=
EXTT12=
EXTT13=
EXTT14=
EXTT15=
EXTT16=
EXTT17=
EXTT18=
EXTT19=
PLAYORDER=
